/* XPM */
static char *result[] = {
/* columns rows colors chars-per-pixel */
"128 128 78 1 ",
"  c #45AC044B0000",
". c #47F506D40000",
"X c #46A90A8A0000",
"o c #486E0D4D0000",
"O c #4AF9145E0000",
"+ c #4D721BDC0000",
"@ c #501717640000",
"# c #51C51D2F0000",
"$ c #4F5220760000",
"% c #52FF24240000",
"& c #599B25390000",
"* c #55E02ADC0000",
"= c #5A122D370000",
"- c #5C71336C0000",
"; c #5F6E383E0000",
": c #61CD35C70000",
"> c #63773C150000",
", c #690B3E120012",
"< c #66A241340000",
"1 c #6A9C44E70000",
"2 c #6E1A49BD0000",
"3 c #70CC468A01B3",
"4 c #71CA4D800010",
"5 c #702B475D0C7D",
"6 c #75E652C10009",
"7 c #79625675000B",
"8 c #7D485AAA001E",
"9 c #763C50DE0CA4",
"0 c #794353F30CB0",
"q c #7EC65C120952",
"w c #75E24FE60F94",
"e c #7B42559512DE",
"r c #7EC75A8C12F8",
"t c #7B2353F81A01",
"y c #7E7A58BE1B88",
"u c #81335E890072",
"i c #81725EE30A2F",
"p c #81F95E9C12A6",
"a c #82915E251B9B",
"s c #8497622A00DD",
"d c #88F16693013D",
"f c #8AB2685A0188",
"g c #856B62EE0BD1",
"h c #892D66BD0C57",
"j c #8BB869470D2A",
"k c #866D63EA1295",
"l c #894766C61323",
"z c #8CEC6A9013FB",
"x c #8566625E1B19",
"c c #89646709197A",
"v c #8E276BD81A52",
"b c #90D36E381599",
"n c #91286ED41C48",
"m c #9263707D176B",
"M c #9394711E1D7B",
"N c #8F6A6CC820FC",
"B c #91726F35210B",
"V c #949C725B241A",
"C c #9953767D2478",
"Z c #9B6D78912624",
"A c #96E574CA29E0",
"S c #995A76EE2C7C",
"D c #9BB979092D9F",
"F c #99B177C03000",
"G c #9D017AA6335F",
"H c #9F827D523872",
"J c #A0FE7DE42DA3",
"K c #A0E37DF935ED",
"L c #A17F7F063A56",
"P c #A371805C37A6",
"I c #A3F581533D6C",
"U c #A6B8840E4182",
"Y c #A93F865D4453",
"T c #AB62885846C9",
"R c #AD518A7B4A27",
"E c #B1608E3C4E98",
"W c #B2B68F7D5018",
"Q c #B4B9917F52A8",
/* pixels */
"8<78%#2888<%81878768P8868cAq8>PVRVHBz8IF;*<$q22$67728qs8siURBBsi6678868d8hm7xgssdABSLSzhLvud741u,&cu7uuK6,0j,:u7,341dNs27>=>71s<",
"7<4sO&1s88-;7<878888P8888qPq8;PARBFVvdUF;*$Xs62*77627sf8jkUYFB876768888siij6xiufdVBVLSghYMuuu41u2>v8uu7K5>0b,,du,4,,sls18<22=2q>",
"8<88#%<787*;8;847778S8q77zPj8$PBIATvBiIA;-*-s82-88828us8BiUUIA786688888sgij2NsuddAVVYCihYbud7>1d7>vgud7D3#0j1=uu<#7<sl8<772<=4g1",
"u-ss&=<748=6d-848847M8878rVq8*PNGAEmmgUF;*-<d82288728su7FgUUIA78676s86sshis6cu8sdDnMLJigKjud1%1u7<lguuuD,%ed1&u83%7-788<8722-4g2",
"d uu&>27s82ss%648777V8888qPq8-PNFmAFviIF;**;882<687<8u87AjIYHV62*6776888sjs2Bs7ufZBVLCicLhud,@ou73liu7uK,=qs1>u77>81s6s<887174g2",
"uouu&617s828s=238687S7888qPq6>PVUBAGBiIV;$*;s8<;627<7677AjHUVA88$266287ssBs2BdsduGVVYYibLhuu,&#u73luuuuJ1:id,1u87>8<s6s<s88261s4",
"u*7u=8>8s728s-<488h7P7776MPq61BALvFHvkIF<**;88<-66628877VhHIVV68$67u2su8uVu<BsdsuJMVYRhbLjdu,:3u6,huuuuD,&hd:4uu7<u>s8s6876-81k4",
"u1uu=7:8ds2s8>>68888V77q4PPq8<AAHmLvBkIF<*$<ss<;62768u87BkHHAA78;677877ssBu<msjuuGnJLTbvLjfs:31u4@uui7uS4:kd=6uu22s6s8s2s81*84c2",
"u<27>7:uds28u7<78788V88q6mP78;PVFAUFAzHF;*$<d82<86788877AhHUAF88;67688udhms<ksmsuJBVLYMnDhf7-72u,+duuupCu,bd=4u7-286s8d<882*64n2",
"s<1s17,uu,*8ss>4878zV87q7nPq8<yPUBIUFBHF;;;2d7;<7877u678FzLYvVi8;6728u88jli;udhiiJJvKTbADjs8-14u,:g8uulA63bj&7u7$287d881887$67v2",
"s<2u444uu,*8s7>3888rV76q8BPq8<PPFVHRAmGF<<;<s8;<78867u7sFFYRBzc8<762888uhzk;ssmhjJnMLLbCKfuu=4<u<1l7uuiCu3bh=3uu$187d8f28882*8z1",
"u487647uu:*uu7:,q78qV87q8BP87<PrGAHIAzHF2<;288;<788668klVVLEvAc868s6876ukhh;sszzpJNvILvNLhg8>21u13zuuupV73Mj=,uu1;878s828872+8z2",
"s4877,7uu,-888>:q87qB6qq8PPq8<PPIBIHvVGF<<-;7u;<888688kzFBRYFBc867867286f87<ujzmiJVzYYvVKuhu**1774zuuuhCu3nj,,7u:%>48ss28871o8m<",
"7<s77>87u048781=888zn88q8rPq8<PyUBIIVzLA22-;88;;6u668ukjABRLBAc786i88286788<mzzFuFJpLKlDLdsu-+1774luuupVu4nh43uu-O>7sss2s87<O8b>",
"s-u77177u74sus<=888ln68q8PP87-PyYmUFVhIF26--88;*687788idvBRIVAc286v882868ss2AjkFuSDlYDbLIdi7>+1<77biiuzS71nf447u:O:4s8s6s88;Ouz<",
"s$877777su-uss=1888qV88q8PP88-PPUAUHVhHF<2;;k6;$28lu788kBBRUBAk288k66287s882VhmFuKJlUJzKIuh72+2;67zhuulSd3ns47uu,#:>sss2878-ouz1",
"8-868888q8;888-<88qlB88c8BF88<VAHBUFVfIA6<*;z8;*2sv8888kAVUUFBk;66c86686dus;ckzFuGFzUFzGI8j8>%2;,ubiuuzSd3vu,7uu,+:-8ss178s<>gv4",
"8;868878q8$888<<88qqP87c8VF88<nVUAHUcmHF6;*-v8;;28k88s8cBVUHVBk<88zu<888uu8;mgmFsIGmIFmIIdj81$2>3ujjuulVd1nu:67u>#:%s8712881>hv4",
"8*86888888-788<<888qF88j8AB86$vBLVFFBvLV2**-z8;*66i8878lANRYBVk268cu8u86sdu;BhlFdUHmUAmYI8z01o21,4lbuulni1Mu138u6.u*8s;-%88<;jl6",
"7-67888f8q*88f;<888qP88q8VA88;vBUVFHclHm6;-;k6;*66i8888lcBRRBVi<68jq77u<ug8<VshFzHFVUZmUPjzw<$62:1zbuulMu,n01:8u8%u%ss++O781;gb8",
"7*77888q88-qqf42qq8qI78d7BA78<vVYVYEBzFc6<2;q8<*88i8888vFvRRBBi28uku288<sgs<mgzFjIAmIZmPSjvw1O;7O4lnuupCu,n63:uu7>8$777#<8641rmj",
"8$6787887q*8q862888lP87q8BP88<vAUmEYmzAz6<2*s8<;88k88s8BAARImBq2ssku778;igs<mszFzIFzIPjUPnvq<$;6 4fjuulZu,j31:uu728%s86#28*64jzh",
"8*27887888+8882<887qF88z8VA86<vPRzRRVzVl266-i82;88l8788BFARHBAq<uugqd78;ihs;mhzAmIJmPPmUSzcq<2-8%7uzu7lDu>h43:uu74u*s74+28*47znq",
"q-;6888788;888<2887qI78v8AA88<zAUFRRVzFz282;88;;88l878qcBBQHABq;87cuu66;sgs;vvjHmIJCPCmPPbz7<228o7uhuugAu,u14%ud61u%674#28;44qvj",
"j--78884686888<<878rP78n8VM88<qPUFYUVzFm68;<su;*88k8788mAAWHAAq;u8ksd78suuu;mzBHzIPVPVfPPmm7<-<8Ou8husiMu>s4==7u2<7*<q2$281*4qym",
"z-1888826q2888-2877qP68q8VP88;rPHFHFmBFj78*<68<$886ss88kABQHHFq287k8d7ssuu6*vcVFzUzPPMqIIjvr-+26&87husubd=d7,,uu721-;61$<81>68rz",
"z;78878468<8qf;<886qF67v8AAq8*mPGmHFFmFh882<s8;$276s877cFFRUHFi<87g8s78sqq2*vmAFmUFPPUfIYmvy-+;4&u7hs7knu&j73,8u8<$>*<*<28*246ym",
"m;88868266<qq8;<886qI67n8VAq8$nAUAFUHzAs8s2<sg;;6768777kAFRRHF868s7s787s86w*mdAFjUjPUThUYrvr;$*2-88ufukvu#du4,8u8<$2-*$<O8*626eP",
"n28q828868<888;*877qI68B7nP88$vPUmHUVzBs6s268s<;8866868cBFRRIH868s87778su86;zsBFzUjPYPjIUvPq;***:uuuduzzu%d74;8882%6;*;;$8;6;6yB",
"n78f828868<<8q--787qP88n8PPq7*rBUmHRBzVs6g<6ss<<888668qmvvRRHH867s77788s888<zuALzUjURVjUYnPy-+<+:u7uhdlvs%844;888<*2;$$;<72--6tB",
"n48f8288682;ff*<788qP78n8PP86*mPHAUUBzFs2i<6sz<2886866kmABQRFF868d678788ds7<z8mImIhUEmjIYzPy-$6$#u7uduvv84s61+8881>21*-<<8<-*7rr",
"c98882qq8q2;8q*2788rP88z6PP82*rPUmFYBzFg2c26sc<<886628kvAmQRmF88867866s8sd6<jsmHVIjUEPhPIPBr-;8+.duujuNvs<8>1%888226;$->22--;60M",
"vw887=u84s1*77*1777gF88C8FD8--cHIlDTVvFh2b168z;1688668hkVzRUFA888868868ssd5,hdzDMLbIQLpKKDVv-2s&+uuuf7Bvd<7,,:uu71>46$;224-%*1wv",
"v0867*i678<-s8-4776qV8dD8PP7*-MAHVvIlNFd4z<68z=2787668zgABRHFF888766818ssu9:hujACLmLELiJDDAz->8<Ouduu7nzs<d,>>77u1>68*626<-*$4wn",
"nr728-88871-ss-4677gF8vS8GG4$;NPUFVIzlAh4z1688*7678667hhmFIUHF86286786287sw:uubACLmLLIhKAAVz-%81ous7uuzbu>s,&-74s2<88$266;;%$4rB",
"nr627;7du6<+8s=1677kF6cG8GI7;>nnTGVIBgVd4b1788=688787uhjvHUIHF872177821s6su:ddlSCKmLTKhKAMVM>%71>uu8u7kSu1u,%:7782&s8$166=-*$4rV",
"vr126;48881*7s-1677qA7kHqDP4-<BvTUBUvgVq7z688d-7s866s8ikBFYIRF77487871-s6sf2jdlAVKVUIJhFKnDn4<123u77uupSu=7:>177s1O88+$77$O%-7rn",
"Mq>84;66871*68<>677gV7cGlFP8$<vPTUvUnzNd6v8dff-4s87687qkVHIIUF7884886;786u81juhAMKJLBDhKGnAM61143u46uulDuO1,11748<>>7%$66$*-O88j",
"vz-q2;46s:>*784%287zV7cAlFG8<;vTUYzHVhVd7z8888-4s88887qgAHHUYH72727862288884duhDCLMLVZzKDMKn6>481u4uuulV71:,1,u<s2>>7-%21<;%288j",
"vr*8<-27s><<7s;&687qV8kD8PP8;=nUHEFHngVg8b84dr22687886igBFIUHHqs7488272sss81uulDVUvYBDnKCbAn61713d7uuuhVu7-4<>u<82>>8<;<>;<%>48l",
"nlO6,*27s1>>8d-*7788V8kA7HG8>;vHPIUPzfP88j87he2>7668s7qgBAYIFH8d888826287ud4uulDMUVYJVnLAzKn347:,suuu7pAuu=71:8182<68<12;-2$<48b",
"nl-71+7827-=4h;*7787A8zG7GD8-<MUrPRIrqPq8j87zr<28s68887kAHYHAF88787d>768udu4duhAmUbYNZbYDbBn>36*3us7uulCuu44<:71866287>6;$<*448j",
"nz#84o78771*2d;>6887A8kG7GAs<<VIPPRYzmPq8b88ce;78d66877gFIIUBF67887f1678uuu:udhAbYBYVJbLFbnn>1<>>u47u7zAu6361=64f78<87784;<$*78h",
"nz#86 8877<-2h-14787V8kV7DH8>>vUPPURrMPq8m88ve<78s67778iFHHRHG7688682<78duu=uhbBbLmYAKbLKbAn&61;>uuuu7lSuu3u>=14828-86888<;OO18j",
"nz=u6O78761*6z-2272788ln7DP8;>MHPPUPcPPz8m88m9228s67868iFFIIHFi88q886<48duu#ujjvhKjYZCnJGMDn=2->>78s88lVu744:=,78;8*88888;2>$;8q",
"nz+d7*7781**>8s6487878cn7GH8-2zHyPPPBBBzqz88m22>8s66888gAFRYAci88886648qduu,sujngJjLVAVKADnn:6*%1f8s87kVuu4,>:>78<8*887842;<-%fj",
"vl%s7<778<+$4h-6271888lM8VD7-2nIyPPPBBPMfm88n2-;8s67d78kAHUUFAq878768788uuu3uubnsKbLUAAGVAVb<7-Oodud87pVu74,1::78;7;88271-;*2*q8",
"vk+s81718-o$6h=6472778lS8VG7<2nUPPPAnvPM8M88v2*27s67u76xAHIFFV8678qq678quduuusnbdKlYRAJDCnnn<4%%osuu8uzAu74,<:=u8-8267>7<-;%2;8q",
"vg s8244s%;=4q=<272678cH8VP71<vnAIFIAAPr8P88z6;66q66778qAFFHLF68888q4687888888qPsUlLWDKGCBFv21%4@uuu7uuSu<<1,>,u8;82;8-87--+;-78",
"Mg#s84:4s+;=6g-1>77778zA8VP7$<zFFPFPAyVP8V88c6266867788qAABFUF6688qq418488888888uUlLELGKCCLv22%6@uuuuiuAuO><-<>u878*18-882-%;>q8",
"Mg su4=381$-7h-4&7s777AS8SP8+<vGFIIYVVVn8V8dc6<62886788qAAAGHF6878f82161888228P8uUiLWJKLKAKn14-%#uuuuuuD8%:1<<:u847X>8-741-%4<88",
"ng$7u7=68<$-6h-2>7f777AG8SF81>hFFIIUABPn8Pqql662<876788lAAvGHA8878866<2<8882<7PqdUhURMDLYCJv72%-%su7uu7Du4>>->:u848$18%86<-;42q8",
"vk;u77,671=&8g-117s7s7AA8CG8<>lIGPFFVAPB8A8zn<<<8d446f7cFAABAA7768888;;<888<<6qqdLhLQNDTLDGlu,*&=uu7u7uA8<1:&><us187-8%82;=;1<q8",
"vp6847>>41-%8g-11827s7AM8VP82;kIVIPPVBPA8A8qz2;;8d76688cBvAFHV7278447$<<888<26PqfLhLJBJRADGku,&=1suu7u7Fu46>--1u8<78;8$8>;1;$>8d",
"v07s67>>71=-ui*<>u7787FV8VFs;<kPAIIFVrPA7Aqqc2$*7876778vvVFFFA727288;+<-888-<688fLiLKbAIVKAa,3::3uui8i8Ds-6:==<s847818-8>*2-$%7d",
"n46877&%7,-=ui><=u8777GVgCF8<<gHAIUzANPA7Pd8v6+$7466778cvHFFFA628688;;;-8f8*;788dLjLKnVDLGCp,:&,3u7uuu8V8%6:&*47d18848;8:-1;**88",
"n417u7&X71--ss2>:s7787SVgAH821kPAIFBlBFG7A88V6+$8886888dVHFFFV82848s><>-8f8;;16qfLbLKbVJEGVk7$-11uu7uuun7#4:>-478>8728;8-=;%#-s8",
"v4<277*%72>-88<<1u87s8AAgAG71-lPAIABcnmF8FfsV6**8777767BAFFHFB86878s22=>q88$*76quKvUKjBKKMAp8->1,uuu7uuv8.1><=488178-7-8>+*O%>8s",
"n62787&464&:ss-177u7s8VnqVG8<%lIAUAVcvBP8Fn8A62<8877s78VAVAFFm828s7s2>%7q88*<84qdKjYKfVZKbAed=226uuud37zu>>>4:>s6$78-1$7>+* -<8s",
"z1>u6u%264#-ss*26887s8zlkVD8=*cGVIVmcBGA8ABdA2268878766vvFFHFh66884s>;&>qmP$284quLiRJjJCKbDes-1>7u7ud3uvu4>>4-&s6O88+-=6>+-X<6s8",
"h41u47&222*>88*46786s8zlgAG8$$xGAIFvcnAF8VnqA6<78868867vAFFHFl87886s>-*>rmj;684quUiWKADSUnSed-1&uuuidduzu71:1>-87;77*$*7=*;o<77u",
"844847#>>>%1s812uu88s7VlrBP8-*rIVPPvBzAF78f8V2<6886s786BBHvBFk76s676>;=>rnz-286juKCLLVDDTVVp8=<-uuuuiiuuu77,<--77787$-;7<2; *ss8",
"h1us,8#%=;1;ss177887s7AvlnPl--rIFIArBnVA7888A26<886sk87ABFHvGhs28824;+;;qMm-2q2quSSUKVLDKAAe6#1=uu4uzuuiu741>--86888-*<6<<;=*7ss",
"l<7s:u@#:>1-ss<27uu7d7VNkVGk=-rPAYABAnAP6hjdA<<<887sk87mFvHvHk8888462X-*8Mv;*8;quJbUKVYDKASp7-3:u7uubuuuu814>=*71s88<+>72>-614ss",
"z>8d,u%%;;<-88<78s8688BBqVPz$;xIRUAmBVFH8hvhF2<;8s6dk88lAHFAFk8848766%&-6vn>+s%fuKjYKAEJKDDps:1%suuubuhuu413<=&7:868;%;8<;-4<788",
"l>48,8=<-<--88;7888767AB8BIhO;xFHImvAAFH8mlzA2<;886skd8cAUHAmc8848441%-+6zv-Ou%suGbKGMRLLGDpd%<-7s7sj7id87:4>-&7Ouu6$*%71;-81<d8",
"8*6u4u-:$*+;8P*2886678AB8VIl+$yIIHmvAlFFsvlmA2;<886sl88zAUHIFmu8<887>-=%4zn>Os67dDjJTKLLKAAaf*4-4d7ujuuhu6,3--%7O7u6+*$<;+-84*8d",
"d*4u4u=&**$;87*;8s7888Am7BIl<*yUHImmVjFFsmlkF2;28s8sg78lmUFHHB8748881>*-4zn-O82uuGzVTKLLVANps-<>,u7uduiis8<4:-%4%876*<=>2*<7-$7d",
"u+8848=:$$%;88$2s866s8VV7VPh6<rUHUFlAlHHsmzzB<<<ss68di8ivUFAUmi72888;1*<7ln*+s1suKhATLUVSSSkd,-:u44uduiduu>7,=%7 uu6+6$<2;27-%88",
"u#8f67%:X$%;87;6q867q7AB7FIh72rHFUAmAlUUsmgkc*;;8876vh6sAFAVUvk778871216gzv;%s<sdGkVLLUDKSSzd,&&uffuiuiu7u=311%7<uu6%6+62117**88",
"s$1818*6+*%;8227s87787AA7VIq6<qHUUVgmkHIsvsjk*<*8887BB7svAFAUmi8<448<2<6llz<Ou;sdJhVLKYJDGSzd:#:uuuuzuidud=4,4=u7uu1%6*624162-88",
"s+48<7->O$%-8;<88866q6AA7nTq7<kUUFmgBgIHsB8jk$*;8277mB7szFAcUm88<7881<;7hhl>28*8jDjVYLYJAKSld&:&ufuuluiuuu:411,7u88<-2*7<6>7<;8f",
"8-6718#*;-$;8;26s866k8AA6BHkq;kIHFVg8sHHsm7zz***8s86mBs8BIAvUm78>87717<7lsk2<s1sbKjbKKLRVDAks-2-uuuuuguusu:u11>u8862*6*6;2;<$%87",
"4-77>7X*<*;28*;68866k7Bv7cFk7<cUUUBgB8HIsV6ck*;*6s88BBdiBFFAFB78;878<614hgh;26>8jLCmKTJIVLAkd%7:uuuiugiuuu,,1:=u8886*7;o-2;16-8;",
"<*8f,7X%<*;<7*;7876687zz7vFk8<qRHUmsvqIIsA6kk*<$8s68mz8kBFFAHB88$878;1>>lhm=<<2fuLAvTRKLAYAlu-4-uu7uuuiuuu,u4%#u8886$8-X$<;<8*8<",
"1%8d:6 %<;<<7;<78767g8687vFk8;kRFElskqHI8V6hm*;*8s68hc8kBAFAHB872887<1->hzM*1-1suLCvLEKKDYCgs>17u6uuuuiuuu,u1&:u8d88$8-X%1288*7;",
"<%7u,6.1<*-<6<<78767cs877BGk7;zRFUlvkiFH8F7uk;;;8s67iBukAvHAUBg718d7>1&-hnz=2->sjKVbUTJIAUCp8114uuuuuuNudu@u3&:u8888;8<X;168728;",
"-&u7=6o,-$;<62;68727c8888zFg86lUFFBmkiFHuV8uk;<<6u67iAzcFAHBHFg71788:4%-lml*2*-sbLVVILKLZIFh6<<2uuuuuuNuuu@u3-,ud88f;8-*<<286<82",
"*$7u=4O<;*<286;688$6v868qvHk66vIHmgvlzUH8B7ss6226s77qVkcAAFFFAi72828&4=-hvl-2$OsBKBVYLLLCUDi1,<4u76uuuluuu@74>,u88887d**2*687<84",
"++u6:<O1<22282$68s$8c8678lHk26BHHBmBvVIUs868s2<<6s67qAivmHFFHAk74848=>>*gnk;2*OfzKMJYLKLCLJp<-44u3uuuuiuuu@u4>,ud88d8d*>;%788287",
"2*884&O2>412s1 76827v8687BGk<6BLIVmvABUUis8ss6$<6s6s8BkgBFAFFAk88848-;1+lAq-4%>dhPZFTIPICIDi<:46u7udzuuuu7374<1u88888f*2;;188187",
"2-8s4#+<>8;>8>O786<7k7686cGk<2BUHABBBmUHs86s86**6s6ddsiizFHFHFg88848<;1+lSj*6-;78PFZYIPRDYKg1=747uudnunuu7471,3u7888d8-6=;177<78",
"<-864-%1;6;Os= 786*8862u8BAk<<vIHAkmzHRHs86682**7s887suikFFIFFg74878;;;*hSg*7$17jPAVUIPPGUGg1-6477uuluAuu1771,3888788816-*678166",
"2*s82>&4>7%;7*X786*678688vVg;<mHImcvzHHAs68<8<**68si78uqkFHIFFk8687d41<<hFk-4%47MPZnUPAPLKGl1%266iuiuiDuu%>71,7u88f878478+67826<",
"1*8s2>=4;7+<2%O878<877687BBg;<BFHmgclHFFgss<s<*;66888kjqkAHIBBc668824<;28Fh-1-48VIZnYIDCLICs1=1437uu7uDhu%:44>7788d8ds887<787;7<",
">*78>2%1<6O1<*<788;8u8767vBg<<cUHmllmFFFgss7s<*;66s88kVshBHIBvl67778<<;48Fh*1%;hzIDCRISSKIS8&1143uuiuuDuu4:63:7u74f88d868<668*7;",
"1$28;2O217;<1%1788<878688mFh*<cIHmBhzFFHkd87s<*;76878kAslBFUFBk86888;2;78Al*2-;8fPDDRYPSCIS8-744,u77uuSdu4661=6u84d8d8d76<488-7-",
"1<-7=2O-27-1>*278u<s76767BBl2<vLHAAhzFHFh7d7g;*;76888kmslmFFIBl82877;1;88Fv$2*-8lPPMQRIZALC8*s46:uu7u7Slu4441>3u88d788847<>d8-7%",
"4*:8&<O:28$2<-6887<s86888AVk<6VURmAszVVUjss8g<;$86788zj8gBFVHcz8;818-<;8qPk%1<>8jHDMWTIJnKSu-u42=uuu7unhu61413,uq888888862*88*<*",
"-#>8<:@>68*1<%787s<uc68u8FAk<7mURVVikmAHs8uus2*;76f68mh8qAHBIBzu>8d8>;14lPc-2<=hzDAMIITmjTKu-u4-=u7u7ubuu674<44u8qq>8fq86<O88*<*",
"-$<u1-O<48<4<*877i2sh8788FAg<7BYHBvg8lBHusd8q<$<86s87zh78VVFIVvs48s8;;<6vVv;<2=qvLvMTIIMiLSp*u*%-7uuuubu84%4<44u8881q88862$67*2$",
"2+78<:#$;816>*s478<8h878sFFk28VRHmvsgkmHusuuq<;;76778zh78VAIHBzs68s8;;27vBv;12-dzDvBYIIjiJDi-sO==uu7uiV7u<&4:44uf8818P866;;78$4$",
"4-47<=o>2844<*84s828g777sAFs67FRFzcggihFss7si2;*u6686jB68BAIGVv84888;128mFv212;hjDCVUIIjuKKp&u1>#uuuuuBu8<=4-<4d8876qP866;788$6*",
"4278-:.&17411+888i26k7678VF8<6HUFmvicizH8ssss<*$76777kB8iBAIVAm88688%248nPN<<2-hzDZVUUYjuKJz3f4&@u467uMu81-61=68f882fq8272688$6*",
"-678&-O%-7226$8868;sk877iBAs;6FUABBizizHs8888;$*88878lVskAFIFVB88788$418vFc;14;gMADAEUYjuKJp7f1>@uuuuujus2>7<$287887qq7<84887*6-",
"*-48--$*;7<<4-8866*8ks76smzg;6FUAzAgviiI8s688-$<77788zBskVFIVAV88888*1<8bAv>71<dnDKCEIIfiKAlfu%4&uuuuuji86172%488774q8818;8q8$62",
"$*&8::#&>8=-6-8877#7gv67sch8-4AIFzFcmq8T8d<8d;*278876zh6kBFFFBA88887+;48zGn>6<>snJJATYLulKDzusO4,us887uis71u>=4u7uu4hss77O887=67",
"$;+7><#<48<>1+7878#8gv477cl764AIVmFvBh7U8d*88<$268877v88iBGHFBA77786;*;8cVv>61-hVVMCKTLfnFSksu%14sd77uudu:4u:=3uuuu3z8s28*878*88",
"*-%7<1%47u,>4*8788-kgc648zl714DUFdFvmq8U78-88<**<7788h768VFHFBFu4867-*-8cVz-4;-lDDJJKYLiMKFluu44=u78u7u7u>4d#-7d7u8>vs878$868%88",
"*;281<-77u<&3-87u8>7kv678nhs>1DRAqFvv67U78*86;-+<6788c878BHvAvAs4648%;-8cAz=2;:zlKCLLYLhAKVls81<Os7u7uu7u<4s#:7uu48>Bhs77*684-88",
"$>>81>&68s<%2=67u817gc787hzu>1STnqPnB88U68*8866$<7787q86uBHVABAs7418-+$8cvl-1>-zbCCJELLvnLChsd>>#u4u7ul7u14d#,7ud4s>Bzl76*882$47",
"=7<81&&2882#6*6888>7gh8788n820MLvqPVlq8Y<7;6d<<*26886c88uAFHFvAs4248=**8kVz*<<;giCVKWLLbjKvisd<23u6u7ul7u3=s%17uu4u>Alp77*2f2*44",
"$8>7<==<8u4O6+>88u>7776487A8<0mnnqPMqzqU;82<82*$46866z8quvzHFBms6<46-$47klz*<<2huZVJEKLjlLzpsu,27u7u7uluu37f%1usu67:Vvr>2*487*16",
"%8<71%-<772%2+*6uu=6787688Gu40nVP8FPqzqI<86;d2$*66826c888vmHBvgs6;26-+27zkv-172suVVDELIbhKbhu84<uu7u4uiuu>6d=1udu87%Snp2>O6d8;<2",
"%4262+-;87>%2-;677-87767usG822vAPrPAqzhI<86*8;**68746ck78lBHvzus6>28$;<88lz:271fuZnJUKYbiKnuu7+<774uuupuu:6z:4sds87=Fvq1*$668271",
"%1;72-;-7s1%2=22s8<777667uDs26NBPvVPlvlI;82*8<$*66676lv78cHHmB886627*128dVn>271duJnDULLbuKbuu7:,6u77uukuu@6z:4uu888$Fzr2$-728786",
"-=+82>;$884&1<72u8<787878uVg47NnArPVjzzI<8<;82$*67682zl68lFHAB87<728*<28snV,1848fDnKTULzuDMdd77,uuuuuuzuu:uc24uus88$Pjr;$%778886",
"-*+82<=-782>7<678s>8gls78uVk27VvPBBVvlfI<q;<8-$*68788zl6uzFFmFq8$828$22q8MB168>ufKVJULJl7Dnuuu43,u4uuuluu=6z33uus78+Prq--*788d86",
">-$84<$<67128<67s8>qgk6648Ak>4AnPrPPPqqP<8<2d<$$667878s88lFvBBi8+846$<O7unA<@u#udSbGTLDn7Kndl34,374uuuziu&6b:6uus7s$Fzr2>*8888f8",
">**721O677%2s<6788:gzk186uVk24VVPvPnzzqI<8$<f<**77888Vg87gFHFBi8<786<22qsln>&u=udSvGLUVz7Kjuz37,7uuuuubiu=7l=3ud78s*SV822-8888d2",
"1*-422+768%>8>767u:icg278sAg<2AVPmnmPqqU68$*q2*$66668Bg87sAFmBk8;677212ruzn114:udSBGTUVl8Ljdz4u,7uuu4ijiu&1h,4uus78=AA8<4%888882",
"7*$;21$778*>s17678:8zg277sVk>4AGPrmPPqqI28-*q2$*27688zgusuAFAvv62886<16c7jn134,ddSBJRUDhuLfuz37,uu7uuulhu:7j137u7s7-VA8<8$88888<",
"4$+$11$778<<7216u7=ucg278gVk+2SHVnVVBqqU2d*;h6$-<6888mj8qqAPPqr7;886<;6y8mm<2668dSnGRLZguGhspu3@uu66filzu%uh1377887*AAs27%767481",
"6*+222$7782<82<2s8:7kk77szDgO2AVnmnvVqrP;8*<q2-$<68q8qff8rABUPr4<776<<4y8qr<<788sSnGTLMpuKsduuu#uu76uuvlu=7h,676s7u*VS818*77868-",
"6;+4;1$4672286<2d7,7lk888jAl-4AVnqvnmfvI;6*<q6**<67q6qq88qvPPPP6<486-<6n8qP<2f88sVMVLUCuuKuduuuuu3u6uuvlu&7d,7uuu78=VDu>8=8774d-",
"4>o4-<*268268<26u7,7l8877fAz>1AGBqlVB8BI*<*2l2;*66682qqq8rPPPrr8<786-<6yqP8<2888uMCAKLnbgGusuu,uu=uuuizlu%7h14uu388-zA818$87848*",
"7;X6-<*268248;27uu48c87s8dVv1<AVnzqAB8BI-<$<z22*6868<q8f8zPIIBr8<776;<6y8cm>7878uDMVKUvnlSusdu,uu@6uuunv8-4z,1uu288-zV8&8$88848*",
"4;X7;;*648<28*67uu3ql88d88Az1-VGAVqPB7AI;<-<z6<*6678287qmrPUImB8;784-;6y8jv<887quDCDLTVnvSsuu,uuu@u7idlv8>1h,1uu188-zAu#7*88828*",
"8=X7;<*767;;6-77uu48v68u78Vl<-AAAV8Av7AI<6-<r6<+7788888dqrFUPqn8<882-;2y8zA<f88quDZCURKbNGuuu,uuu=6uufhvu44M,<uu-8u>vA8o7-88848-",
"81;6-2-7672$<*68uu7qM78s78Vk1;GGPF8Ah7II<6;$d$;*6688888qfqPIPPy8<872<;1r8zM488f8uGABLTJiVSusu&uuu3u7uiknu14C:,u7%uu>lV8%8288868;",
"d222-2>8684*<*67888qV78s28Vz1-FVPA7Az7RI<7$$8$<-77878768qjIUBPn8+s122><cfmn28f8fuAJvLYJuAD7sd=8uu,uuuupb7,>D>4uu$88;qm8-6<76888-",
"2*=%:4<8881*<%78888qn8886sVg$$FVTP8PB6UP<4*X8$;-86768788qjUUVVr8Os82<>>c8mv688d8uVJvLKCuAF6us-udu1777uhn7,<G:4uu488;8z8$8>8;7q8*",
"6%-+>2<888O*4%78s88qm7884lBz-*SVRP8PV8TP;4*+s<<;86668788qqIIVAq8+8s4<>>k8mn7f8dduJJvKDziJD7du=udu38uudpn3@4D-1ud28748P828<8$8f8;",
"2-1--2<u88**8-87888qn6888kAh6=VFRP8PB8UI;6$$s<;-88768787qrUGAAr87887&%>c8mM7ff88uDnVKKvfLF4du%us7487uihn,=7D:18u278;7P7<8>8+888-",
"s6u4-11u88;*8*888868m78s8gDl8*FAUPrPPqII;6;;c<<$886278788jIFVPv87s86+ <rdcV7r888uJVBKDBdLK3u8%uuu3uuuupM,=7n=:uu;<8;8P7<812O766-",
"u787%11ud8<$8-888788b7888gAz8*HHAPvUqqII;6--q<2*786288888gIPAFc87888OX1r8bn4qddfuMCVLJDdYK3ud%7u7=puu7hM,>7b&>8s268;8B86716+746-",
"s7u7=<2u884-8%887788m7788hSz7-HHPAjPq8IP-<;$q<2$8s6<88d88gUUVAq87888$;2qfvb7c88ddMVBUDMuUA7us%4s3:puuuuV314b:=s8248-fM726;;$82q;",
"s27u==<8882%8*878888V7d78lDj8-GVPPPPq8PP*<;$q<<*827488h88rIUBV88688882488bN7yddfdVnVUBnjLDuu8:1u,%auuuuC4<ez<>88627;qmq482$-72q<"
};
