/* XPM */
static char *result[] = {
/* columns rows colors chars-per-pixel */
"128 128 87 1 ",
"  c #3F0436C02F6C",
". c #36DB36EC36FC",
"X c #3DC6375531B2",
"o c #3D3E3905355B",
"O c #378F37A937C2",
"+ c #37A437BE37D4",
"@ c #3C0E3C1B3C28",
"# c #3FDB37813014",
"$ c #42293AA63422",
"% c #42043E153ACA",
"& c #44A040C43D9B",
"* c #4B16438F3D29",
"= c #50E546C23DD7",
"- c #51C647E43F45",
"; c #3F8A3FAF3FCF",
": c #3FB53FDA3FFB",
"> c #43E143EF4401",
", c #4A8446894350",
"< c #4D4E48F84588",
"1 c #478D47B747DD",
"2 c #47D1479B47DE",
"3 c #47BA47E54810",
"4 c #4B4E4B314B2C",
"5 c #537D4B4D4456",
"6 c #59144F7B4734",
"7 c #52484E1F4AE4",
"8 c #58EC4FB547EC",
"9 c #550951454E64",
"0 c #5A4253364D51",
"q c #4F954FC24FE9",
"w c #4FAC4FF45040",
"e c #54A253B3532E",
"r c #59DA564F53A0",
"t c #5C74590A566C",
"y c #574957845838",
"u c #584457C85807",
"i c #57B157FA58B3",
"p c #5CF45B7F5A9B",
"a c #61CC5B615617",
"s c #615F5E8E5C75",
"d c #639260D45EC7",
"f c #696563435E52",
"g c #5F585F696013",
"h c #60825FDA5FFF",
"j c #5F9360106086",
"k c #656D63FE6321",
"l c #68F466D6655A",
"z c #6AC06898670B",
"x c #674167726832",
"c c #682367CD6816",
"v c #679A681B6924",
"b c #6CD16BFC6BA5",
"n c #710C6B8A6701",
"m c #70C66F146DFA",
"M c #725270866F4A",
"N c #6EEB6F727067",
"B c #70346FC17039",
"V c #6F9070367142",
"C c #73E8738B73A0",
"Z c #78CB7733763E",
"A c #7A42788E776D",
"S c #76D4776C7878",
"D c #785577F17836",
"F c #77AB7851795E",
"G c #7B717B477B91",
"H c #81077EF97DA5",
"J c #830E80D77F4D",
"K c #7EC47F65808D",
"L c #80347FE6805C",
"P c #7FA6805F8182",
"I c #8366837F842C",
"U c #88CF86D5859E",
"Y c #8A8388CF87AE",
"T c #8696874388A2",
"R c #887B87D88885",
"E c #8792885489AD",
"W c #8B008B218BF4",
"Q c #90ED8F548E82",
"! c #8EA98F4490B0",
"~ c #8F9990849242",
"^ c #93B093D094CA",
"/ c #98DD97F197E0",
"( c #9688973B98A6",
") c #97BB98BD9A43",
"_ c #9ACE9B449C41",
"` c #A12AA04C9FEF",
"' c #A22EA24DA285",
/* pixels */
"e4>&@@@@@@+@+@+@@@@;&%;%@+o+@+@+o@..@.@;>4eq3>>@;@@@@@@;@@@;:>>>>>>&;;;;;@;;;;;@>>>4ewe3>:::&@>@>@:;;::>>>11>>>;;;;;&;;&;;::144w",
"e3emcpcCFCCmk9***o$o#&&$$$##    ######*7>4eq>,,*%*77tpkckCbbbkdttpccbbp<&$$&$oo ##X>qe43r,%%&%,9kbbVbp44&&   o$$&&$oo&&&999lbe4w",
"3wWIZzMbTDLWCZnfMdab6tabttMbzndtrra0k00Ct>445frtk0trs7a7tr5etCCbssCsdsMbMCsfkftMst723w3mzztd79er9gcCGMACDkddtfe9d9t0<99r9t<<9Ze4",
">bIGCAbkmmkzdMlzfHMzzbrtMrZGAGbGFKCSbzxms>3>sskr7pstbsccd7<*4sdCCkbbkddCMbMbzsDCCbbz>4eIszbdzppkpp9llkCmmCCmbdbczzkbssrlr9kkpkj1",
"@CGAMAZMFbkfbbbbdkzCGDMdftezfllCZZFbCCcmm21;kzzBbkzpse,atepk47pcsbpd99ktVbmCClCbFNCe>3eHmzkzbCvkpekslkldzfmVCbVzbmbmjbkellklrlg:",
"@ACazGFGCCdpnzzMfrfGGAbbzz9rMMDlpaCzCbzAb>1;kbsrbCbsttkkzdz9seppbbbdmkcbVCmbCdbbbVCc@39GddpCbzkNcp&eslzbegpcltzclbCvukbgpjvVvkk;",
"@CJMCbbCbMmsdMCbCkrpmpDGbkduCMmzbkkszCmGG2>%slspp,4tzpcezbzzC4ekdlzcbVczpdvbCckbkzSp>>7FzmszbCvb97uetsbdtjjpkbblpmVSmbbpbbbbVVj;",
"@bMtdkzCksftfJMMDCmlbmbbbMGzMbDbbztppgkHL>>>nmnbpzzkzzztbcpstsgkkMzzpt,eplbmzVzFkbbk>39ZlCztVzkekst9dkdlbzbkkkcklkbCbVmgjjkvvli@",
"@MIbrMdtfpbGzbbCzZCDmszVmMVbmbbkCbCmcelfC1>>dACFNcccVcvkpvCCvkjpddzdezugtbdbCddtbjbx:3emkCbVcc9rdpppbkbkdzbkvek9subdCFbVkVVjpCi;",
"@zMzpskt9flkMbMfdmVMmmmCDSVbCFVkzFCbSktZb>>@fMbkzScmpbebzzCxetpplldzdcklu9bCvptCzzbk:37MbbbbkpkbVpkpbkbsdzkzbjbzkkpdVbVmbbvkVCu;",
"@zIZCsbAMklddlMCGfD9lCCbmVFlCDmlbbSNmbczz>>>lbbbsckcbbcpekekvpbpkgpzzkkbkpbczzCdkSkk:34Mzkzzcpckjjxpbdzzzzpcbvmbblup7prvkSbkSVe;",
"obHMbzdkkdtkzbMGGSdzmFmSSmbdGbDSFCCNzczFC>>&lMkkCzBCCCzpkkzpppkkd9dglbdgvbkVpzbbVCNg:34CcpCCC9eVVpepdkpzVzbkbbpCVSsmprepvujbCSp@",
"@kGZAbFFbCmpVCdFkbzDSGSSbbCZDmbSCKSSCbbZG>>>lMdCCpbczNCCkpkVCkrkbmCdbbctkbkbfbcmVVlg:3<ZzxCNzclbkkjpkvkeCbCvVvzkgslskbvkkspelDg@",
"@dAAMbCCCMDbDDbtmCGGGCbbCCsslZFDFCzSFCGLC>>;fmMbbNccpcSzzbbbkNvepkbmmbCbpppddtzVzzbp:,7MvpzkbVpbVvbkpbzxbzzCbjVkbkbvlVbVklg9lLk;",
"@kRFHMCGGMCmCmmdMmFGGGGGSgdCCDCMCSCcsmFHK1>>zMbCCNCCbzzBbzCbbbkzkbkbeCbVkjuglCkmVVVk:34ZCvVbNbbbbjkpbzzVlcdbVgdbjVSVbbVjkSbukmb@",
"@zGzzMLMMzCmFrmCCsCZGGGzDzCSDFGGGCGCbCFFB3>;dCmCCkxbCbgCCbzcbbVjvCbpppvVVb9pbFCCbbpp:34CVrvbVVNjxbNNNzvV9zkpcldCVvdVbmlbbkvggmV:",
"@bYGbCCDFfMDzMtGClltbldrkFbddkDLSVVkbCCGF31>MldbcxccVSbSNzNCcvkVkbtdbkse4lgezpd9dzbp:34FzitpzzxVbvjtlkVsdvbjbVbSdkkvmCVVlbVVjGb:",
";M~MDmDCmCMCbbMeDllmbmMCmzdCGDLbFFFbsdFEIw>>mGAmbbCCVkbbxbCbzzkpkvzzClldrvbtbCcdkDFv>37GNvcbvkNVCvfklMplbbvCVlCVFbSvvCSvCbbCkGS:",
"1d)RIIIJLLICIIPDGLITLRETLHCIFGIIPPIDIEI^W341MIGDFFGKCKNmGGVGCFGCVbdkFPFFlpCbCFACGMDk344HPVCFKCGVSvCGCCmbSGPSGGGVFVbVVSGGSSGFVPj1",
"w>S(~Q!W!!WWWRERERREEREWEWREWW!!~~^~~W~^i4e44GIIIIKKKKKGGKGKGKGGPPGLGGPPPTGIIUTIIIC3we4rIPIIPIPTGGTIIIIGGGPPTPPPITGLTPPPTPPPZp44",
"e4>@@@+@@@@+@@+@@@@@;@@@@@@@@+@@@@@@@@@>3weww1>>>>;>&>@>>>;:>>>>>>>>>:>:>;;>:::>>>,4eew43>>>>>>>:::::>:>11:1>:>:::;:&::&::::>34e",
"4411>>>>:>>>&>>>>>14www411>111>1>1>1>3>344qw4331>31>22331133344eww3,1>111,1>33>3>3344qq43>>3>>>>31141<344ww44431111>>1>1333:1144",
"ppyyeu9,>*&%&$$&oo&1wew3>>*>1>4wipppiipippieiipit4>&%%%%%%%@@>qre4>%ooooo@%>4ue,3&%&%&>>1eippp9<&&;%ooo%44yw<%$oo%%&&&&<yppppjjp",
"^)IIQWAGJMMmad0ffas14w4rMfdkAHDGEECCFWETTEWEEGPDZGZllsr5rat05&>44>0aa0t960t0sMGIMImmmdAGFTFWJPHzl700dt9r<4w4&f0000rMmZGZWW^!(~((",
"HPGLCnMtaddtddbbddDl>47IGGFbCSSSbad9kzCbFbSGFbzmtbCCZMCzkp0dtp>139zzCAzMGGCCdbGFGCZGFGCGSVkCzalzzMddddMsl13:fMZMHVCCCGZCGvzMzzlm",
"lFGFVllCzzMfnzfbmmdl@3iGMdvVvbbg9sks5e7rzNCCCCbCrktbkdCbbbdbVle>:pZCdkbCmcbzvppcmCMCFFbNzkbztbdamzmbCVCGVw1@ZJMmZCkzPGGZlvMdl0fl",
"zMGCdzMMlbzZbZtbCmml+1eJCklbkbvklksp9p4rspCVbbCbmlbtsCbzCbzbbc4@@tndpeVCcklVcbkeCCFCCktt979CzzlbzClmCVbVvw>@ZMZGbCVZGCrmszzlflpC",
"pzGCnzMMHMMbCMGMDbbv@>ePGllkbltk9kkct,sktk95bkbCzbCCcsCckbzbVk4>@tMGCCbCCvCbpebp7eCbdeptkktczmdmZzvFmVVmN4>+MJAzSbFKCkzzZstlMVlV",
"pCCFtMmMZbMbDPSlmlmb+1eRbbVVvvzgzbkbckkpetpkpczCbbzckVCCCVbVbVe:@tzlMACFVVkgCv9tslstkzzMzkbsszbmSCSSCVGCCq>@CJFCNVSSzCzad999jvMl",
"DllDlzMZbMMAbbGddmbg@>eCzgbkjjzmksbzzkp,pkpvsxmCzbkbCcCkbCbCCpw@@rMAcccSVmbSvrtbzstezbzbkzbktzmMvbFbMCVvG3>+AIVFSFCkpz0zdllkp9FC",
"MldmZmdmCAMbCmCMbblk+1eGzdkVlbmkbzNzvNkppprvbsBbzCCczzbzmCVkbvw;@rCZzvCmVmCbkCCkcssbzCFCbCsmkCcCSzCSFbvMM4>oJJbVCSkdmlnzznGnbbCZ",
"GmpsmzmzbLFDzCFGzlmk+1wLzlCbklCCpczckcbkNgkpckpCbNCCNCCVlCCvCbe@%tCGVkCVVepdbCblplbbbzkFFkzCbCCkv00dpddMC4>%JZFCVVlzlAbFVZVMCzts",
"vlzCGMZkpMffbmCCCSFk@>wISCCbmst7skkdkVNcpr4tpkeCzClttkGSVSvbSvw;;0VCGfdkdkdNzVNjtNCNlpstsfMMNldlllddzmFGF4>+YZVmvdddCZCCZMbntVdv",
"vdrjmZmdsrzMCmGCzCCz@>eKCxkbttkrkzskzkzbpk979t<ebtsllpkbmVklzvw;@tmNNkVgbjdbVVxbkSVky9vtNCvVVltdvbVCVb9mF3>@JIDCdllmGGHFzCCzFknp",
"bsfvCMtGtpdDGCCDCCCcO1rFBppr7dbckkCbrvskVbvc77<k,dMlblbbbdmSbbw:@dGGCCpdzbdsCNbvxxzldzbyst7ppCdlCVVVbFbvV4>@JHMbnzdlZGZZHMCZAVdb",
"FVCkDfMfmlkzGDGLmCBcO>yKGkikkbBbCcbdzcmBCvbpkke,9tCbClkvsllkvj4@@dGSvxSxfNbkNVVbNtznMCZfvlfpzMCzlZCzFbVGb4>+WPVtfpClFCzGSCmCVCzb",
"dbkgbmlbGkdrbAGGGCCz@1pFbkcsl0zzksrbpVkCtpzVdsek9dubmVglkmdlCkw:@sCCfbVCNbfVVCbvlfklzdMvzydzkdSVdlvbCzGCC3>@JCsfCbll7dlzMCFFCFZC",
"lFlglmDCmCCVgbDGFFFC+>iFbcksckzkszxxkx9rskpszCttutp9mbdllbpVCVw:;smCZZVbNNSVpvSCj7yzylzMMzvpSvsVFCVGMFvbb31+WZpmVSpZpdzMfmZGFHCK",
"GbmpkmmmGMDGbzrGCFEC@1iTmbzksbsCzNNkettsdpksbzbcbdbremzSlCCmmFe::dAdNSVFCVjCVpSd9sMZCVMCCCMVCVvbVCvtklMMS43@QHCzzfCCMMnMMCCGGZzG",
"kHTmdmAHGCIIfbzlCT!G>3eWFscCCCFmSSbsbzpCcczdbCFcfgtpekGCMFFGLPp11fYGSGPCGGCGCbZdCCSKMZldMFZZGVGGGFGGNKGYK44&JYZPGmlGZCFHATTICAGG",
"~~((P~I)^^^^(~(~RW_i4w3SIbzbFIIITIITIKIITTTTTTETEEIGPpGIPEITPP4444W^P~!T!W!!!EGPWQE!!!!E!WYEETY!WWYWE!WWb3w4i///)~^^^^(^^^^^^^^^",
"iyyuipspipuuyeyupp43wew3epepppppyyyeeryreriiiiieuuiipu,>wpppi3wey43pjppiipipiwgjppppiiiiiiyyiiyyiyyiiiiw4qwq33piyyypiyyiyyipyyyy",
"44111>>>>>>>>>>>>>3qwqq41111112211>111>34wqqq44311313111333344wewe44443343333434144444441>>&1>>1>>>>>>>14qwq41>>:>:>:>&:::>::114",
"y41:@@@@@@@@@+@@@@@@;;;;@@;@@@@@@@@@@@%>3weeq31:>;>&>>>>>>>>>>>>:>:>::::>::::::::>14eyq3;@@.++++++++++@@++@@@+++++++++.X+++@;14w",
"4><t00mlfffttrf055506rdbGIKTn85=***=**-*o4ee1<9<*<5<9ebFIPIPFMblkfbGPPSGPPTZPGAzzlg4qe31fJPHffddpdfmZHHflr85-5=----88r00568f7&&7",
"41dMbbkCMmZblCbbbbzszmFBzNbdlzssbmd0tCMr9>43rkCkgutdppdpgtCCbzMmVNSjNNNbbbNVkzZNVdGk34>THzfGHZCdJZEHMzfnnMlMtfdfllfpzlZZZIGMMd:>",
"&tAzmbkSmCfVd9fpsVFbkszSzkzzzdZlzsbbbbmmc>3>bzdbbVkvzpicbvktclvNVCVbxbbfCvuktddNlMkC>1y^ZdtzZHGCCAnfzfFZdZFHGCCCHVCzddMCZljdPGe;",
"@tJlbSklSmDDbAbMbtzsCkzkkCClbbzmCbbCSzzFb22>zp<dlkbbmzikzv9clcCbvkpfygVdbfdVxkdNVVZG:4tJVmf9MZCZfppzzCpzVfzMAGZGbZlltdtbZCMnZGe+",
"@sZklvlkCzbmbmbbGbzctCcbkCBCcbbCCAbkmCCbC>3:zze7cBxkBvggvdcpbCCvNjkxpdpbzbxkkkkkzmCT:1eWJGSVCVdddtkzkrzmzdslzMCZGFbGmCbzdzdmZTe+",
"@gImmmkvbzCZCCGCBsdcChczpFkzzCCCbszmmFkbc33>sbhiwBbhkpgkgpkvbbbbbksCjkbjkvbbvCsjjpCP:1r^YFCvldzzMbmmdMlCMDGCMLCbClMKCFFCMlVzzGi+",
"@zIMbGSbebCCmbCBbCCCperpbbckCCZzzzCbbkbmp>>>kmpk7sbCphx7dzNpzdVdNbbxktvbjvklljkjVvbC:1eWCMVdynFGMMzMZMlMMFCCGzbHVGZGFCbZZMClCvy+",
"+zrrkSVbpsCzCCnCNmbCzVpppzCcCGbzCzmCGbCmk>1>knkkghrhh9ihuNcpkvmjkVbk<djbdlskklbjbVbn:3y(JFZCMFzMGZmGHLDsCDGDZCGHGKGCGFmMMKMprCi+",
"opfpr7vCFczzzCCFbCCzkbbkkrCzmZbCFCNSmFmGb>1:lNzyxtpxhtkktpvbczbbxNkeedksmbbzNbbbibVz&1pJCHAZMzFMzzLCzLGbVCCmMLGMzMbzdmCzddMlnpq+",
"+rkdkkueBSbCZbCCCGCbbpzpz7eVCbCCFCCCmFCSS11>kxNNxxkNttigcygeccCbxfdsNdbdselibkbCvemm:>i^PmpzCzfMmklbDmCPDVbmtrdbfytddMCzMzMzllq+",
"@tmVblsgsbbpGzzzmSkbcckckz9lbCCACFCCbCFSC1>>lzCbNBczxkpezerppbtpxypjsdkjilixkvxNVjbz>1iIdddznzlVzmmlGmGLGl9dCntdtsCMmmZACCZAGV9+",
"@rGGkd*&spsCzmZCmCmSGNktpspepCCCFCzbGCCGb33>nFvktkkpsckkcgppcsz7kfxbkkbkxljCkkijmsVz:1rJzznZZFVnbGVCCCmCzkbd0tdMCdZAmzzFCCzPVzw+",
"+rD9bkgeez7dbCzdFCmGCNCkkNvp9pdabCCZNCFGF41>nCNpizkpxkgxkp3pp77kjlvVkvbbbkvbvxlVkVll:1rJHbzCZdzVGGGSVGbMzCbbCCbrCGCMmCVGCZFGKVw+",
"@pzfzvkblzbdbpkbbCzbCbbCkbkbbdst*rrzkzFKI41>mkkzzcCkbkppbkggtedslbbNbbbNbjksbrj7ljml:1rWRmImdzGGCCGGksflGCzzzMGMszGDCDmzZZGGGbe+",
"@9MlbNgpddrezrecCZCFFCpCSVbxkddzzakspzCNGq1>mCxNmcCxzbbgpgkzkkpcjmVbVbbbkbCjjppj9rfm:1e^DHDszCbPLmGMmCbzbmmDACAMDvCmGSLSCPGGGCe+",
";0MCmCkvzpet<zseFFFFSbCCCCNNlzdstbbCzsdiKe1>CNjxbxNkxVkxpppheczdpsvNbkmVbjvlkbbCjp9z>1e)PLbMFfVGDDVdmzCbCGldzCDCZCCVVGCPHHHGGFw@",
">tJGbCGbddCrezzbrbFFGCFCVGSkFcbMCszzCkKKFe41KCgrbmbcNNNVVpspkkbCxvpbCvvbbmlbVzkkgplM13u_EZlMGGPPLmGGFDGDFmmFGPGGHGmSGFGPzGGGJPi:",
"44IRIPPCIPPCbcKPZzZGRFCFCzCKbmGTGITGIIPEP1q4cIKkbCFKSGFKCCkCFkcCZGbpGCGVZSkbNGCZGGVd441_WWWQ~WWTWR~EIYIWWWWETEITTTTTWETEQWE!~W34",
"944bbzbbbvzbVVSCCCCpkbbCSCbxzCCCCBCNVCSb44ew1gNNNBCbNNNbNbVNVVNNVVVbpkvCxbimVzVVVmj4we43CLADSCSGSCCFSCMmmVVVmVVbmbbVVVVVGSGSV43w",
"w41;@@@+@@@@@+@@@@@;>>>>;@;@@@@@@@@@@@;>3qew43>>>::>>;;;::>:>>1111>>>::>::>::::::>14ww41;@+++++++++++++@@;;:@++OO..+.++...++@>4w",
"%@@+X.......+o+o+@:4wwq4>@@@:@@@;;;;;;;>:11>>>>>;;::::;;;;:::3qewq4>;;;;;@;;@;;;:::>>:>>%%@@@@@@@@%@@@;:>4wq>:++..........+++@%@",
"#$$##$#$$$#$$$>jvl9:qwq4vSCCVbbzxbbpetre&%$&%%;*ekeixbbCCCVskq4ww44ksbVSSVSMldq-99pr77tjjjp9*7-q>%$$%$&%>qeq:&**--4e&**&*&*-&$$$",
"sa066mrrfatzsatmEWQt>qqAMlKFIGKGlraps-9dmmkasfjlCmZSbCCZbVCAZVq4qeJJSbCGIzMzHMbzMZsfplfpzZsalMklkttfkaalt>q>rJUGJWmmAAfbdnCbba9n",
"ZFCZtfCJGCGCMFbSmlJA@1pJFNFCSlre7sklssxk7zAVbVCyrkCCSvbvCValmVb31VWGNCxClszztAFzsdltkkbmZmjmzlZlCCZCbCFAF33@J^PPPmUGPKUAAAJACPJM",
"JKJFCGzlbCGGFZlCCkAW+1iKlV-yksdtdklltbkbpmCCNNbvNVVNCCCvdkmCSCv:;NAAAxmzlsbdjt0rVklCSmNNzCZCCbCjbbCCVFFFIw>@^KPPAMkmaZAGGJFCCZAJ",
"MGGAKZAlfCatjjmbbZmA+1iKl*rjepzlClrbbmVAVVkkVCCNSbbNNCVvzZCCCPC@;VSACNbbMkzCblbtmkjkvvkxCmlsVCZmbmVKCbslVq>+JPFmMKGmGPAKCGbFAGAb",
"FIMAFMZCmGlMNmCmmPUG+>iUMdlkdssjNpmmkxkplkVbbCbNxbibvlvsejvlCKz@@NSGxlkkCCsdMdbpzVbNSNmpklFmCZmvVbkVVmCKKq>+/CCCsf-rt7sjCGGMAGGH",
"KGGmmGMzKMKKlbFKCGAA+>iPzCjszjlvsdkVSvVlNjNCxjxmNbCllz9ataitdlk;;vVbser7alkbNbpdpvbSlbbCjCbCmjCmbZvpCFVzPe>+QmalzCzMtarrttGZGACZ",
"GAZKIFGGmKmSSbbGZzsm+>pGdsrCVbklbMmVVVlNvxbNNvNNVCkdedddjkNblbd;@pzbdkkbkdbaklsdbvFNGkCCkCVSbNzSCNCNCCCFEr>+Jbka6rmlMlk877-bxmFA",
"GZFZAZZAGCmSMmlbzACm+>rZCMbblbVbNbjtVNCVNvCvbbSjxCbjmklVvsmmbbk;@rlmklbzzksbNbFMlbbkvxvNxbNCVbCSCNNCZbjpAe>+UHzkfzbtFGdmMdsdsbMH",
"AMKGAKKGPGSmKGbCrssl+>wmMFVNzbmClNljxbzmVkNbxvCjvkpmkrlbvbVkxzv;@jtlszCblkCMVbsdSvNVNsjSNvVGCCGVCSvr7fk9Cq>+JAlmGHCzFFMlCdrdndlb",
"aZCmZGAAmmGFGzjlMZml+>9MrbkjtrktxzdbVbVVvjvCNxjCbjlbalklrfNskms;@MmsbZdsrbbbCxSMvVCljblmvGbGCCCbCksr97mZVq>+JJznbsZGJCddkjdk0zsd",
"lkAACKCGPSZGFMZAGFFl+>wGjkstmxkjrlNVjkVSNbjCmplbbblsCVkjfjtt7sj;@zmkmlzzCNztCSbGvxCCVNVzsp9jlVmzllpdrfkra3>+JPlCdAmbzzfmFF9sMMzC",
"MsjKZGKJGGCmjmkbsFGl.>9MmxtmlbCvbljVNmjlCbkxVjlNrkalxsjltdljsxi:@zmMssNCmsCMzsbMVveNbSssksrlv7lbmmlVlbmVj3>+UGllnCblbAFCbtzbzklb",
"8CzlAKAPGzPGAJbAGmFm+>qZGkbsbVxkbbCNxlblSjjCbbNjbrkkv7klbebNbli:@lKlbbbdbCbSFCzFmNvkjr9mCmxjp9s9sppMFClCF3>+JaAlMCAHCCbfCdMACfld",
"j7lmCGFAFAIGCGzZJGAM+>4AbzbNbNbbkmNVxCNVbNNslkr9pxvli7alCkkCbvi:@bGzCjkskSFCbAbVVVk9zmls4bjtli-trlmsslbPm3>+ZAlzZAFGCZMCFbCGZmFf",
"mFltZMGKGGFFmVFGKPFN+>7FCVkziVbsjlVVlCxzxVxkbldzsCkNfxsClmxmCCi:@Fmlltl0tvVzmCbxlklkbbbmVNs7psjr7mZVjVNNK:>+MlxVnFCHMFMVlMVHVIFM",
"ICsdjssGIJKUKCGAIIPN@1wFCbMbSCpbbjbZSVSbNxlzjCzCSCbNkkilzNmlFKv:>kCtblsCldCCGVFbttmbmNbFVmslbtsjkpbVZCNCSq*@AIVbbGAFbFHMCdmMMGFH",
"TIUPmGZMWJWPIWIIIP^G:44UIMFFSGGGGNbSMSFGNdlFMCzAGSZCSSZSCGGGPPp31tJCmKKGPVllCmbFFGmFIPKSCzVKmKKZksAICZPPK:4>AQKSFGJJIUPPIIGUWPUW",
"!W~^^)_E!^_`__((()P:4e4pPPUJIIIIIIIIFbVNkdfCGFzAHPUEPEUPPPPPPb3qq>bUIIITPPTWWWWWITPPWP~PIPW~UPETIGPEPU!Peqwq*J(~^^(_!^(~~^(^^^!!",
"@+@+++++@:++++++:;:qeew44>::>:>>:>>>:::::>:>>:::::>;:::%>::>>1qewq>>:@::%@@@@@@@>>::>:::;;;:::@@:;;;::::4wew:::;o+++++@@+++o+;+;",
"qq41>1>1:::>1>>1:::wqw47w:14q:4:4:4:4::qwwwwq-:>1&>>:1&&1:1&>133:-11>>>>>>>>1>1>>::qwwwq-1::133133>14::w4qqq4-:41>>>::4:1>>1-:qq",
"eq1eiryijpppiiipippiiiwe4->>474-qwyipijp4wyw4:jpe<3&:%&&:%%&:$$$@%$XX#ooX@X$@@$$>>>*qyw:473->%%%&1*3**&&&&:3&%%%>-4-w4-:1:&&4::i",
"q>rtrasCKKPKGFTPUUCzzskMGMdklFbbGIKHGPPPV4y:j'^AmQHnnfadnsnHzfa00r-00arr66a66a0radd1:w4CJGCCztarjatmfsbbMzdbAbsslbbkzkFGAldddj:w",
"39js7slke9tmtlzFbSVdCkzVkbVmVpGVjGCvCjdzUe4@U(UHHCtmHmmMZMx7nGMAAzfdGakzZZHaMAFffmAl@4eJMsajzFMFmmVbdalGHANjbSAVAAdzdttkACSCmbw4",
">abdlipNd4pjdj9eNksbmMVjNvCCbVmbNvbblt7MCe1@PJCIHlmCmmbCfAVffdVAMAJJAbKFGCGFFImGCCGC@1iAZMFzCMbNVCktbkbpSVNVklNSbbkkbdlwlCbAbAp:",
">rMNbjpldepxr4rw-7ClNVNNVVVCNvxmCvljkttsMe1+EKFkmffbnMCmVdCfACbtCKFZFICCKCGJGGKbbCCZ+1tFbtlzlsibmCvvdmVNNrVNNbSzxzCtbCNkdbNzVHe:",
">tmbNljxlbklktbkrjdezbbNNbVVVCVbbjxkpkskzi1+GafdVCAdMZCmmCzACHCmbCJFJmFGFAFGFKKPFJZC+>iGzllbjFCCbbbCNVmlkVjNVSbNbNVbllsssrxkbAi:",
"@tFmbbvjbvbjMme-s9d*7eldbskbe-pVblxllzVkPi:+JzMAZnVmsVVCAAblVMZCbsMGGKJCzbkszkKJHGIF+>pTzFbVmVCCCCkpjlbjjSjbkmACVMVVVxbzptjbbGj:",
">tblvNVvvllpbkrp9spekljj7spidtewwtVbkbCGPj4+_FMMmMGZMflJVVmmKbAZmZmCPGCmfkMKCbbJbCUFo>iJKCjSSVCbtjSVCllmzVNrkNVCmzSSVSbNCNmVCHj:",
"@sFCNbNxbkNbC9iseidvssijesbedjje-dwsdVzNIi:@JMfMMZGVmAVbACmAKSHSGlFtGmkmIFbtrrrrbmZG+>iJjbzmCtj9bpCkVbCVj9ssbbVzbNzSNCVbNjxVNAN:",
">kbksjkmVvlllisbtsjljp-*797dkskkejdjs7tzPi-:JJACGMGHAVlsGMbCCPCPKKFFszFCFMmMMjkrdHGH+>iFGzzszvZmktlVlbNlsbjNjjlSbCsdCbSSNmNdVKb;",
":lMClCbbNxtsslzlvslvsjklrt7tlvljjfjgzxsvze>+QZAbAAmGGGAMdPCPKGHGZCmlSaZmCfVbvCbCVCPP@&iHSsSSbkzsbksVlkvaCvbjxNdlrssr9trkvbvVCSb:",
"@bMFmmbvNlvvzkzjjvtsjpkabppixVbjgsbjsdkVKy>@/YHnbVbZHCHlfGbGZHGGCAfzvmAAGAKvCZSalZGI+>iHZv*-9sbsbbkkkkxVbSvvNklrrdbssrr-*wsvCGb;",
">NCkVbNjtslmzljvbtv9llNzksklptrVbpdbkdbkSy>+JZGmnGMMbSHSbjbNkzdCGAlbAZszdGGSZZvVdjmE+:iAmiimrpCvmbCkbkmSNNvjbsljprljtz9tsw--eAb;",
"@bGFCmNvtvvCCmVmvvNswstVvVxVlljrNd7ejbVbGy>@QGmAZAZslNfzsf0bbxb0r7mVSHVGbZPGZzVjZvPP@3rmZlbvkjvmmVbNbVkxbNbxNldpbssdlkkejwp7rkx;",
":pSmCvzbvkkklmmVNVvs7tsjjvpksktekpeziNbbAy1+WCZbGzMGbGCMzVJCVsdbAGAKaZCAZGAVZFSKjVWW+:iAkmVsvbkktblbNbjstsezr9djzlekzlktjrttbmz;",
":pjlbVmlk9lVjVlCmVVmkpessvbvtjkbtsskkvjvAe>+^UMZZMZZZbmmVdfbVzGGGmVAmGPGPZIGPGGCCCW~@:iZClCVlkkzdebbsmbNiejbtktxmd9dCVSSjseetsb@",
">jltlbbVmtzbCzzlvvjkssjrlzkpVjCxezNkCjNbJy1@_YmZMMCbKmCGCZVSMMHPPZPZmHKKJGGGIPPKCGP`@3tGGCzkkNvmjbzkdpNjVskdkzbskNNsllkmbjksxbk:",
":kzdstbFFljmFSmFMmMFMCCSMFjVbSbkkzVCkkjbJ44;YJWZfGVAZJJYWGHGWJCGVIIEEIEmVbGVPIPPZC!Q:39JPzZCCVmSVbCSCmHSbdbbMZFKAmdMGCMCVHVxNAj:",
"e4CPSlNKIUTPGCITPIPKPPKKIPKPPTTTPWPPEPKKp4w3p'`_////^^^^~^^((^^^)))_)_^^)(Q)()__)GG43q4CWUEPUWPEEEWEP!IPPGNkSWPPPPPPIUUIUUPW!P4w",
"yqqpjjeqipjpetiiiyiyieyeriiiiiiyippiiggw4wyw13iputyeeyyeeyeeeyiiirppiyyyeiyyiipppp33qeq4wpiiiiiiiiiiipijy41*ijspjppjiieeyeiji:qe",
"wwq::q:-q:>:4333334qqqq431>3>1>3>>>>3:334qq441:&>>::>:&:::::113443::>>>>>>>>>>>>::4qqqq4333&33:31141:44:44q4q::-:4:::411::4::4ww",
":::>::>%:::>@::%@>>qwew4:@++@@+++@@+@@@@@@@@@+o.+++++o+.@++@::4eeq4:@@@@@@@@@@;@:;::::::;;;%@;::@@;@;::14eeww4::::;;::;;>:::>:::",
"jMmbbmCCmKWJUGMksr*>qw:&--=67--50065adz!(^WVfad00-=======-===&>4w*--*--**--rrzfkkfVCICrfmkrdr8-7--=--7-844yq:PGbNaszbaa80atar7tr",
"Cbk-t0adFVGAZCbMMGk*>q3fGbzaaarkzfnbdPVFSGZnf00MMsdfdrsfdutafa1::9kmVmbbjjlmGCbtklbVZbmCfkGGmsdtlstsrplbj:y:FCmVVHd9tbsttttMsssd",
"zzmjblrjijjMmmlCzjMs:37AGMpbsmmbtNKbkNbVZZnmMdfCfGCzGCVmAHCbCbe;:kmmCpbVSCbltzkVZGbpCmGmbVldfzlssNbblzllbq-:IHbsVztkkzMdxkbpksmb",
"bbbljkFjmpijCCbCzmMj:1-AFasZKMbzkSfVNdfVzmCdVAAACCCCVmGGSAPGxxe@;xCNCbGACCbmkClatjkbmACCzCSCCzCbdxCmbtkxSq::PJCVzszlVskSMltmpbbj",
"xbmzbbCbbvsiVllCkFFk:>4IFlMCFJmbvZkbSd9dSbmmVAKmCSZZxCFGCZNSGxe+@lCbbNSZSCllvzlmVkjpbSSlVGSlCmlmZNCxlvaxVq::EGSzlbkNbbVkkzbpNekl",
"CSZCSCVkCmjjmkmCMMSd:>7UzksdzCCbsnbkdedbVbZMZGMVSZlkmKFCCGCmGCe@@kmbCkvCNCljbCSVxVNbpkmSZSmzCNCSblbbzNbVCw3:VCzmzMzkVbzVjbVASbxs",
"kkdlipvCkxkjkmeadbFk:>7ZzFZJSVCbzbSbVbkunNdnAGGZCVNSCZbGGGKCSGy+@zAmVNVCV9abbCjmSlkikjGCSkVCCklsbbzkzCvvG33:CrCCMMzVbNVbdkCSVVjj",
"zbVvksrsrqbra9ktwbGx@1-MZmZzksdzVCdsvdbjVdmbClCNCmHGNKSKSGCGSKi+@lmmNlVVxjbktpkplmibjbmNlzCzfkdbZCCCVkCxCq&;CtlmNzCSCZVlmllbVVNj",
"vtdlCmvbkpVjkdbkbrCN;>4AMGklszNlCZfzddg4dNmCZCZNCSHSCKSGGSHGGZy+@lAAbblVjklvApVbmvvjbVkkSbVxkbmxZSbSxbbbC4::nf9tlCmVANNNjNSCVVVs",
"bkbllkVvjrpkkljfmCpC;>-JllbmGbMlVdVNNblj<mMmmKVZZGGGCCFGSSGGGVj+@zGmCZVrdNCNlCbNkCVktttebbCfClCmCGCFSSVZKq3:ZriljtbCCVAVCCbVVNlb",
"vVVCmkjkkslkvzVZdmlx;>4zmnbAMzlMCzszNzdfesZVZKCKlbSSCCt9-tfklVx+@mmdjAVbmzCCSCSSCvr&-3rrzmmlCZCSCNCFCCSSGw3:Cs9t0skpVCSCCSNCNlbs",
"mSZmzvkvlzqtalmtlmGb;>4mZGMCzzMFVNVzbCdzr7zVZGZGGvstifzGkesssPi+@jzzer9pCbGZCVCj9*8ik7e9aefCZSNSVCvNCbSxSw::mm79kkbkpkCSSNSNbszV",
"VVVbCNbNpebkxzmdbCNb>:-ACmZCmCFGZCVbuzVzbj7kNAZCdkzGClsaCrkCkmy+@sAZsVvrdzljkzkrtfrs7trvekeZCCVGSGAZSCbSI3::Zziiddi0&-&bVSCVlkbC",
"mCaqbdpbbljbkkdmVjxC;*qAGFCCfGCCbSZNZbCvxad97dCAmlSmGmCNmZzmbzi@@amlkssaezCbdse0iliflis77isvCCSZSbbVSSCSI44:zVltelbmj9q7eNVljazm",
"mmCNVVCZVNbVVdkzzmjG;:7MMAAGGbFKKSKCGVkNSfbbakmmZNGZCdCCCmCNZGi+@sGGCkbjs979alapeavkmbjtemiap9CCVVAAlebVK44:zACtrkmkvljkirVzlkmV",
"NmArkmCdbkvvjmkClbjN::-MM0CdzGSGZVbGSGkkvSNzekimGZGCmZGZGPGSGGk@;lGbCCNbmddzCklmslVxVakV9mvzbjvlVCCVlVpdCq4:mMdCpj9ztjxwk9ermACC",
"bbVbkmVZCbNNVVVCCAGb:44AGHNAmdkssdufCPCCbNzNVNblzGHSZGHPFFSPPPx:>mKHZbkGmzbvvzGSKSCSiVCNsCCbSbxjmAZCCZkCG44:ACSVvkbbjxxxapss9zAS",
"GPSKCGPAKPKGCIPGPJPj1q>KWEKIUIPUPTTKTPTTUPWIWFCGCGGHIUEWWPP!~~q44qQWEPGGPJPIGKPGPPKPKPKKZIGKKZmtCKIPPIIWK:q:lEPKJGHIKKKbSvjAldSP",
"rbCCNNCSCCVlkVCVVCj:qw41lmNbbNmNbbbbNNVVVCSSGFSGGGSCkCGGGGFKGq3qw3wCSNbbbbbvbbbvvvbbvbNVVCCCzpdtekCCVCSv3qeq&jVNbNbbbbbCVVxxxs7-",
">>:;;@;@@@;@;@@@;::qqqq4:++++++++++++@+@@@;;@@+@+++@+@+++@+@>:qweq3>:@:;@@;@@@;@::::::>>:;@@@;@@;;@;@::>4wweq::;;;;;;;;;;;;;;>>>"
};
